<?xml version="1.0" encoding="utf-8"?>
<!-- Generator: Adobe Illustrator 21.1.0, SVG Export Plug-In . SVG Version: 6.00 Build 0)  -->
<svg version="1.1" id="Calque_1" xmlns="http://www.w3.org/2000/svg" xmlns:xlink="http://www.w3.org/1999/xlink" x="0px" y="0px"
	 viewBox="0 0 1984.2 3118.1" style="enable-background:new 0 0 1984.2 3118.1;" xml:space="preserve">
<style type="text/css">
	.st0{fill:none;}
	.st1{font-family:'Genome-Thin';}
	.st2{font-size:50px;}
	.st3{font-size:23px;}
	.st4{fill:#575756;}
	.st5{font-size:25.1389px;}
	.st6{font-size:12.5695px;}
	.st7{font-size:11px;}
	.st8{fill:none;stroke:#2B4C9A;stroke-width:1.066700e-02;stroke-miterlimit:10;}
	.st9{fill:none;stroke:#2B4C9A;stroke-width:1.066500e-02;stroke-miterlimit:10;}
	.st10{fill:none;stroke:#2B4C9A;stroke-width:1.066400e-02;stroke-miterlimit:10;}
	.st11{fill:none;stroke:#E52622;stroke-width:5.000000e-03;stroke-miterlimit:10;}
	.st12{fill:none;stroke:#E52622;stroke-width:3.000000e-03;stroke-miterlimit:10;}
	.st13{fill:none;stroke:#67B331;stroke-width:1.000000e-02;stroke-miterlimit:10;}
	.st14{fill:none;stroke:#67B331;stroke-width:1.000000e-03;stroke-miterlimit:10;}
	.st15{fill:none;stroke:#67B331;stroke-width:3.000000e-03;stroke-miterlimit:10;}
	.st16{fill:none;stroke:#E52622;stroke-width:1.000000e-03;stroke-miterlimit:10;}
	.st17{fill:none;stroke:#E52620;stroke-width:2.835000e-03;stroke-miterlimit:10;}
	.st18{fill:none;stroke:#E52420;stroke-width:1.000000e-03;stroke-miterlimit:10;}
	.st19{fill:#020303;}
	.st20{fill:#1E1E1C;}
	.st21{fill:none;stroke:#6EC5D8;stroke-width:4.000000e-03;stroke-miterlimit:10;}
</style>
<rect x="59.9" y="53.7" class="st0" width="555.3" height="57.8"/>
<text transform="matrix(1 0 0 1 59.8835 90.7188)" class="st1 st2">Hedgehog lamp - beta</text>
<rect x="59.9" y="105.8" class="st0" width="760.8" height="57.8"/>
<text transform="matrix(1 0 0 1 59.8835 122.8395)"><tspan x="0" y="0" class="st1 st3">Cutting file_Are you ready to cut your lamp ?</tspan><tspan x="0" y="27.6" class="st4 st1 st3">Fichier de découpe_Es-tu prêt à couper ta lampe ?</tspan></text>
<rect x="59.9" y="230.8" class="st0" width="441.7" height="159.8"/>
<text transform="matrix(1 0 0 1 59.884 249.4462)"><tspan x="0" y="0" class="st1 st5">01_lampshade side a / </tspan><tspan x="242.5" y="0" class="st4 st1 st5">abat-jour côté a</tspan><tspan x="0" y="15.1" class="st1 st6">Cut the drawing below inside the polypropylene sheet</tspan><tspan x="0" y="30.2" class="st4 st1 st6">Coupe le dessin ci-dessous dans la feuille de polypropylène</tspan><tspan x="0" y="58.5" class="st1 st7">red: marking path /</tspan><tspan x="90.5" y="58.5" class="st4 st1 st7"> rouge: chemin de marquage</tspan><tspan x="0" y="71.6" class="st1 st7">blue: cutting path /</tspan><tspan x="89.2" y="71.6" class="st4 st1 st7">  bleu: chemin de découpe</tspan><tspan x="0" y="84.9" class="st1 st7">green: cutting path /</tspan><tspan x="96.8" y="84.9" class="st4 st1 st7"> vert: chemin de découpe</tspan></text>
<g>
	<circle class="st8" cx="205.9" cy="398.2" r="4.5"/>
	<circle class="st9" cx="192.6" cy="391.8" r="4.5"/>
	<circle class="st9" cx="225.7" cy="398.2" r="4.5"/>
	<circle class="st9" cx="238.9" cy="391.8" r="4.5"/>
	<circle class="st8" cx="239.8" cy="931.9" r="4.5"/>
	<circle class="st9" cx="247.5" cy="943.2" r="4.5"/>
	<circle class="st9" cx="191.8" cy="931.9" r="4.5"/>
	<circle class="st9" cx="184" cy="943.2" r="4.5"/>
	<circle class="st8" cx="409.9" cy="931.9" r="4.5"/>
	<circle class="st9" cx="417.6" cy="943.2" r="4.5"/>
	<circle class="st9" cx="361.8" cy="931.9" r="4.5"/>
	<circle class="st9" cx="354.1" cy="943.2" r="4.5"/>
	<circle class="st8" cx="580" cy="931.9" r="4.5"/>
	<circle class="st9" cx="587.6" cy="943.2" r="4.5"/>
	<circle class="st9" cx="531.9" cy="931.9" r="4.5"/>
	<circle class="st9" cx="524.1" cy="943.2" r="4.5"/>
	<circle class="st8" cx="750.1" cy="931.9" r="4.5"/>
	<circle class="st9" cx="757.7" cy="943.2" r="4.5"/>
	<circle class="st9" cx="702" cy="931.9" r="4.5"/>
	<circle class="st9" cx="694.2" cy="943.2" r="4.5"/>
	<circle class="st8" cx="920.1" cy="931.9" r="4.5"/>
	<circle class="st9" cx="927.8" cy="943.2" r="4.5"/>
	<circle class="st9" cx="872.1" cy="931.9" r="4.5"/>
	<circle class="st9" cx="864.3" cy="943.2" r="4.5"/>
	<circle class="st8" cx="1090.2" cy="931.9" r="4.5"/>
	<circle class="st9" cx="1097.9" cy="943.2" r="4.5"/>
	<circle class="st9" cx="1042.2" cy="931.9" r="4.5"/>
	<circle class="st9" cx="1034.4" cy="943.2" r="4.5"/>
	<circle class="st9" cx="1260.3" cy="931.9" r="4.5"/>
	<circle class="st9" cx="1268" cy="943.2" r="4.5"/>
	<circle class="st9" cx="1212.2" cy="931.9" r="4.5"/>
	<circle class="st9" cx="1204.5" cy="943.2" r="4.5"/>
	<circle class="st9" cx="1430.4" cy="931.9" r="4.5"/>
	<circle class="st9" cx="1438" cy="943.2" r="4.5"/>
	<circle class="st9" cx="1382.3" cy="931.9" r="4.5"/>
	<circle class="st9" cx="1374.5" cy="943.2" r="4.5"/>
	<circle class="st8" cx="1600.5" cy="931.9" r="4.5"/>
	<circle class="st9" cx="1608.1" cy="943.2" r="4.5"/>
	<circle class="st9" cx="1552.4" cy="931.9" r="4.5"/>
	<circle class="st9" cx="1544.6" cy="943.2" r="4.5"/>
	<circle class="st8" cx="1770.5" cy="931.9" r="4.5"/>
	<circle class="st9" cx="1778.2" cy="943.2" r="4.5"/>
	<circle class="st9" cx="1722.5" cy="931.9" r="4.5"/>
	<circle class="st9" cx="1714.7" cy="943.2" r="4.5"/>
	<circle class="st8" cx="375.9" cy="398.2" r="4.5"/>
	<circle class="st9" cx="362.7" cy="391.8" r="4.5"/>
	<circle class="st9" cx="395.8" cy="398.2" r="4.5"/>
	<circle class="st9" cx="409" cy="391.8" r="4.5"/>
	<circle class="st8" cx="546" cy="398.2" r="4.5"/>
	<circle class="st9" cx="532.8" cy="391.8" r="4.5"/>
	<circle class="st9" cx="565.9" cy="398.2" r="4.5"/>
	<circle class="st9" cx="579.1" cy="391.8" r="4.5"/>
	<circle class="st8" cx="716.1" cy="398.2" r="4.5"/>
	<circle class="st9" cx="702.9" cy="391.8" r="4.5"/>
	<circle class="st9" cx="735.9" cy="398.2" r="4.5"/>
	<circle class="st9" cx="749.2" cy="391.8" r="4.5"/>
	<circle class="st8" cx="886.2" cy="398.2" r="4.5"/>
	<circle class="st9" cx="872.9" cy="391.8" r="4.5"/>
	<circle class="st9" cx="906" cy="398.2" r="4.5"/>
	<circle class="st9" cx="919.3" cy="391.8" r="4.5"/>
	<circle class="st8" cx="1056.3" cy="398.2" r="4.5"/>
	<circle class="st8" cx="1043" cy="391.8" r="4.5"/>
	<circle class="st10" cx="1076.1" cy="398.2" r="4.5"/>
	<circle class="st8" cx="1089.3" cy="391.8" r="4.5"/>
	<circle class="st8" cx="1226.3" cy="398.2" r="4.5"/>
	<circle class="st10" cx="1213.1" cy="391.8" r="4.5"/>
	<circle class="st8" cx="1246.2" cy="398.2" r="4.5"/>
	<circle class="st10" cx="1259.4" cy="391.8" r="4.5"/>
	<circle class="st8" cx="1396.4" cy="398.2" r="4.5"/>
	<circle class="st8" cx="1383.2" cy="391.8" r="4.5"/>
	<circle class="st10" cx="1416.3" cy="398.2" r="4.5"/>
	<circle class="st8" cx="1429.5" cy="391.8" r="4.5"/>
	<circle class="st8" cx="1566.5" cy="398.2" r="4.5"/>
	<circle class="st10" cx="1553.3" cy="391.8" r="4.5"/>
	<circle class="st8" cx="1586.3" cy="398.2" r="4.5"/>
	<circle class="st10" cx="1599.6" cy="391.8" r="4.5"/>
	<circle class="st8" cx="1736.6" cy="398.2" r="4.5"/>
	<circle class="st8" cx="1723.3" cy="391.8" r="4.5"/>
	<circle class="st10" cx="1756.4" cy="398.2" r="4.5"/>
	<circle class="st8" cx="1769.7" cy="391.8" r="4.5"/>
	<polyline class="st11" points="130.8,535.7 215.8,684.5 300.8,898.5 385.9,956.6 	"/>
	<polyline class="st12" points="130.8,535.7 215.8,361.3 300.8,535.7 385.9,684.5 470.9,898.5 555.9,956.6 	"/>
	<polyline class="st12" points="215.8,956.6 130.8,898.5 215.8,684.5 300.8,535.7 385.9,361.3 	"/>
	<polyline class="st12" points="215.8,956.6 300.8,898.5 385.9,684.5 470.9,535.7 555.9,361.3 	"/>
	<polyline class="st11" points="385.9,361.3 470.9,535.7 555.9,684.5 641,898.5 726,956.6 	"/>
	<polyline class="st11" points="555.9,361.3 641,535.7 726,684.5 811.1,898.5 896.1,956.6 	"/>
	<polyline class="st11" points="726,361.3 811.1,535.7 896.1,684.5 981.1,898.5 1066.2,956.6 	"/>
	<polyline class="st11" points="896.1,361.3 981.1,535.7 1066.2,684.5 1151.2,898.5 1236.3,956.6 	"/>
	<polyline class="st11" points="1066.2,361.3 1151.2,535.7 1236.3,684.5 1321.7,899.1 1406.3,956.6 	"/>
	<polyline class="st11" points="1236.3,361.3 1321.3,535.7 1406.3,684.5 1491.4,898.5 1576.4,956.6 	"/>
	<polyline class="st11" points="1406.3,361.3 1491.4,535.7 1576.4,684.5 1661.5,898.5 1746.5,956.6 	"/>
	<polyline class="st11" points="1746.5,956.6 1831.5,898.5 1746.5,684.5 1661.5,535.7 1576.4,361.3 	"/>
	<polyline class="st11" points="1831.5,535.7 1746.5,684.5 1661.5,898.5 1576.4,956.6 	"/>
	<polyline class="st11" points="1406.3,956.6 1491.4,898.5 1576.4,684.5 1661.5,535.7 1746.5,361.3 1831.5,535.7 	"/>
	<polyline class="st11" points="1576.4,361.3 1491.4,535.7 1406.3,684.5 1320.6,899.7 1236.3,956.6 	"/>
	<polyline class="st11" points="1406.3,361.3 1321.3,535.7 1236.3,684.5 1151.2,898.5 1066.2,956.6 	"/>
	<polyline class="st11" points="1236.3,361.3 1151.2,535.7 1066.2,684.5 981.1,898.5 896.1,956.6 	"/>
	<polyline class="st11" points="1066.2,361.3 981.1,535.7 896.1,684.5 811.1,898.5 726,956.6 	"/>
	<polyline class="st11" points="896.1,361.3 811.1,535.7 726,684.5 641,898.5 555.9,956.6 	"/>
	<polyline class="st11" points="726,361.3 641,535.7 555.9,684.5 470.9,898.5 385.9,956.6 	"/>
	<line class="st13" x1="1831.5" y1="898.5" x2="1831.5" y2="684.5"/>
	<line class="st13" x1="130.8" y1="535.7" x2="130.8" y2="684.5"/>
	<polygon class="st14" points="1831.5,956.6 130.8,956.6 59.9,956.6 130.8,898.5 59.9,684.5 130.8,535.7 130.8,361.3 1831.5,361.3 
		1831.5,535.7 1902.4,684.5 1831.5,898.5 1902.4,956.6 	"/>
	<line class="st15" x1="130.8" y1="898.5" x2="130.8" y2="931.7"/>
	<line class="st14" x1="1831.5" y1="956.6" x2="1831.5" y2="931.7"/>
	<line class="st16" x1="1831.5" y1="898.5" x2="1831.5" y2="931.7"/>
	<line class="st16" x1="1831.5" y1="535.7" x2="1831.5" y2="684.5"/>
	<line class="st16" x1="130.8" y1="684.5" x2="130.8" y2="898.5"/>
	<line class="st16" x1="130.8" y1="931.7" x2="130.8" y2="956.6"/>
</g>
<rect x="59.9" y="1030.3" class="st0" width="441.7" height="228.2"/>
<text transform="matrix(1 0 0 1 59.884 1048.8792)"><tspan x="0" y="0" class="st1 st5">02_lampshade side b / </tspan><tspan x="248" y="0" class="st4 st1 st5">abat-jour côté b</tspan><tspan x="0" y="15.1" class="st1 st6">Turn back your piece and cut the drawing below in this one</tspan><tspan x="0" y="30.2" class="st4 st1 st6">Retourne ta pièce et découpe le dessin ci-dessous sur celle-ci</tspan><tspan x="0" y="45.2" class="st1 st6">!!! Tip: use the corner of the cutting machine as a starting point !!!</tspan><tspan x="0" y="60.3" class="st4 st1 st6">!!! Astuce: utilise le coin de la machine de découpe comme point de départ !!!</tspan><tspan x="0" y="88.6" class="st1 st7">red: marking path /</tspan><tspan x="90.5" y="88.6" class="st4 st1 st7"> rouge: chemin de marquage</tspan><tspan x="0" y="101.8" class="st1 st7">blue: benchmark /</tspan><tspan x="84.9" y="101.8" class="st4 st1 st7">  repère</tspan></text>
<rect x="59.9" y="2187.1" class="st0" width="441.7" height="228.2"/>
<text transform="matrix(1 0 0 1 59.884 2205.7212)"><tspan x="0" y="0" class="st1 st5">04_foot&amp;cie / </tspan><tspan x="148.8" y="0" class="st4 st1 st5">pied et cie</tspan><tspan x="0" y="15.1" class="st1 st6">Cut the drawing below inside the MDF plate</tspan><tspan x="0" y="30.2" class="st4 st1 st6">Coupe le dessin ci-dessous dans la plaque de MDF</tspan><tspan x="0" y="58.5" class="st1 st7">red: cutting path /</tspan><tspan x="85.1" y="58.5" class="st4 st1 st7"> rouge: chemin de découpe</tspan><tspan x="0" y="71.6" class="st1 st7">black: engraving area /</tspan><tspan x="106.1" y="71.6" class="st4 st1 st7">  noir: surface de gravure</tspan></text>
<path class="st17" d="M144.9,2301.3c-47,0-85,38.1-85,85v171.5c0,15.7,12.7,28.3,28.3,28.3s28.3-11.3,28.3-26.9v-15H88
	c-3.1,0-5.7-2.5-5.7-5.7s2.5-5.7,5.7-5.7h28.5v-53.8H88c-3.1,0-5.7-2.5-5.7-5.7c0-3.1,2.5-5.7,5.7-5.7h28.5v-81.4
	c0-15.6,12.7-28.3,28.3-28.3c15.6,0,28.3,12.7,28.3,28.3v21.3c0,15.7,12.7,28.3,28.3,28.3c15.7,0,28.3-12.7,28.3-28.3v-21.3
	C230,2339.4,191.9,2301.3,144.9,2301.3z"/>
<path class="st16" d="M675.9,2842.4l-247.5-428.7V2391H372v-10.8h56.4V2358c0-31.3-25.4-56.7-56.7-56.7c-29.8,0-54.2,23-56.5,52.3
	h57.9c3.1,0,5.7,2.5,5.7,5.7c0,3.1-2.5,5.7-5.7,5.7H315v48.8L67.5,2842.4c-15.7,27.1-6.4,61.8,20.8,77.4
	c27.1,15.7,61.8,6.4,77.4-20.8l206-356.9l206,356.9c15.7,27.1,50.3,36.4,77.4,20.8C682.3,2904.2,691.6,2869.5,675.9,2842.4z"/>
<path class="st18" d="M183.2,2465.9c-23.5,0-42.5,19-42.5,42.5c0,21.8,16.3,39.7,37.4,42.2v-43.6c0-2.7,2.2-4.8,4.8-4.8h0.6
	c2.7,0,4.8,2.2,4.8,4.8v43.6c21.1-2.5,37.4-20.4,37.4-42.2C225.7,2485,206.7,2465.9,183.2,2465.9z"/>
<g>
	<path class="st16" d="M1329.8,2956.5H116.6c-31.3,0-56.7,25.4-56.7,56.7s25.4,56.7,56.7,56.7h329.1v-56.4h10.8v56.4h770.9v-58.2
		c0-3.1,2.5-5.7,5.7-5.7s5.7,2.5,5.7,5.7v58.2h91.1c31.3,0,56.7-25.4,56.7-56.7C1386.5,2981.9,1361.1,2956.5,1329.8,2956.5z"/>
	<polygon class="st19" points="122.6,2982.2 122.7,2985.6 129,2985.6 122.7,2990 122.7,2993.3 134.3,2993.3 134.3,2989.9 
		127.9,2990 134.3,2985.6 134.3,2982.2 	"/>
	<polygon class="st19" points="122.7,2995.7 122.7,3005.5 125.3,3005.5 125.3,2999.3 127.6,2999.3 127.6,3004.9 130,3004.9 
		130,2999.3 131.8,2999.3 131.8,3005.4 134.3,3005.3 134.3,2995.7 	"/>
	<path class="st19" d="M127.2,3015c-0.6,0-1.1-0.2-1.5-0.5c-0.4-0.4-0.5-0.8-0.5-1.5c0-0.6,0.2-1.1,0.5-1.5c0.4-0.4,0.9-0.5,1.5-0.5
		l7.1,0l0-3.6l-6.9,0c-0.6,0-1.2,0.1-2,0.3c-0.5,0.1-0.9,0.4-1.3,0.8c-0.4,0.4-0.8,0.8-1,1.2c-0.2,0.4-0.4,1-0.5,1.7
		c-0.1,0.7-0.1,1.3-0.1,1.9c0,1,0.1,1.8,0.4,2.5c0.2,0.5,0.5,1,1,1.4c0.5,0.5,1,0.8,1.6,1c0.6,0.2,1.3,0.3,1.9,0.3l6.9,0l0-3.6
		L127.2,3015z"/>
	<path class="st19" d="M125.8,3028c-0.4-0.4-0.6-0.9-0.6-1.6c0-0.7,0.2-1.3,0.7-1.7c0.5-0.4,1.4-0.6,2.6-0.6c1,0,1.8,0.2,2.3,0.5
		c0.7,0.4,1,1.1,1,1.9c0,0.4-0.1,0.7-0.2,1c-0.1,0.3-0.4,0.5-0.6,0.7c-0.2,0.1-0.4,0.2-0.8,0.4l0.7,3.2c1.2-0.4,2.1-1,2.7-1.9
		c0.6-0.8,0.9-2,0.9-3.5c0-1.9-0.5-3.3-1.6-4.3c-1-1-2.5-1.5-4.4-1.5c-1.4,0-2.6,0.3-3.6,0.9c-0.9,0.6-1.6,1.3-1.9,2.1
		c-0.4,0.8-0.5,1.8-0.5,3.1c0,1,0.2,1.9,0.5,2.6c0.3,0.7,0.8,1.2,1.3,1.7c0.6,0.5,1.3,0.8,2.2,1l1-3.2
		C126.7,3028.6,126.2,3028.3,125.8,3028"/>
	<polygon class="st19" points="122.7,3033.7 122.7,3037.3 127.4,3037.3 127.4,3041.2 122.7,3041.2 122.7,3044.8 134.4,3044.8 
		134.4,3041.2 130.3,3041.2 130.3,3037.3 134.4,3037.3 134.3,3033.7 	"/>
	<path class="st19" d="M147.8,2986.5c0.2,0.1,0.4,0.2,0.5,0.3c0.1,0.1,0.2,0.4,0.2,0.7c0,0.3,0,0.6-0.1,1.1l2.3,0.4
		c0.2-1.3,0.2-2.2,0.2-2.9c0-0.8-0.1-1.5-0.3-1.9c-0.2-0.4-0.4-0.8-0.7-1c-0.3-0.2-0.7-0.4-1.2-0.5c-0.5-0.1-0.9-0.1-1.3-0.1h-0.4
		l0-1.4l-2.8,0l0,1.4l-7.1,0l0,3.8l7.1,0l0,1.8l2.8,0l0-1.8C147.3,2986.4,147.6,2986.4,147.8,2986.5"/>
	<path class="st19" d="M142,3005.9c0.8,0,1.4,0.2,1.7,0.5c0.4,0.3,0.6,0.7,0.6,1.3c0,0.4-0.2,0.8-0.5,1.1c-0.4,0.3-0.9,0.5-1.7,0.5
		c-0.9,0-1.5-0.2-1.9-0.5c-0.4-0.3-0.6-0.7-0.6-1.1c0-0.4,0-0.6,0.2-0.8l-2.3,0c-0.2,0.2-0.2,0.3-0.3,0.4c-0.3,0.6-0.4,1.2-0.4,1.8
		c0,0.8,0.2,1.5,0.6,2.1c0.4,0.6,1,1.1,1.8,1.5c0.8,0.4,1.8,0.5,2.9,0.5c1.6,0,2.9-0.4,3.7-1.2c0.9-0.8,1.3-1.8,1.3-3
		c0-0.6-0.1-1.1-0.3-1.6c-0.2-0.5-0.5-0.9-0.9-1.3l4.7,0l0-3.8l-13.6,0l0,3.5l1.5,0L142,3005.9z"/>
	<path class="st19" d="M142.1,3037.9c0.8,0,1.4,0.2,1.7,0.5c0.4,0.3,0.6,0.7,0.6,1.3c0,0.4-0.2,0.8-0.5,1.1
		c-0.4,0.3-0.9,0.5-1.7,0.5c-0.9,0-1.5-0.2-1.9-0.5c-0.4-0.3-0.6-0.7-0.6-1.1c0-0.4,0-0.6,0.2-0.8l-2.3,0c-0.2,0.2-0.2,0.3-0.3,0.5
		c-0.3,0.6-0.4,1.2-0.4,1.8c0,0.8,0.2,1.5,0.6,2.1c0.4,0.6,1,1.1,1.8,1.5c0.8,0.4,1.8,0.5,2.9,0.5c1.6,0,2.9-0.4,3.7-1.2
		c0.9-0.8,1.3-1.8,1.3-3c0-0.6-0.1-1.1-0.3-1.6c-0.2-0.5-0.5-0.9-0.9-1.3l4.7,0l0-3.8l-13.6,0l0,3.5l1.5,0L142.1,3037.9z"/>
	
		<rect x="137.1" y="3015.2" transform="matrix(1 -1.290525e-03 1.290525e-03 1 -3.8935 0.1882)" class="st19" width="13.6" height="3.8"/>
	<path class="st19" d="M141.8,3028.1h-0.6c-0.5,0-0.9-0.1-1.1-0.2c-0.3-0.2-0.5-0.4-0.8-0.8c-0.2-0.4-0.3-0.8-0.3-1.2
		c0-0.4,0.1-0.7,0.3-0.9c0.2-0.2,0.4-0.3,0.7-0.3c0.3,0,0.5,0.1,0.7,0.3c0.2,0.2,0.4,0.7,0.6,1.5c0.1,0.3,0.1,0.5,0.2,0.8l1.9,0.1
		c-0.1-0.2-0.1-0.4-0.2-0.6c-0.1-0.4-0.3-1.3-0.6-2.8c-0.2-1.2-0.6-2-1.1-2.4c-0.5-0.4-1.1-0.7-1.9-0.7c-0.8,0-1.5,0.3-2,0.9
		c-0.5,0.6-0.8,1.5-0.8,2.7c0,0.9,0.1,1.7,0.4,2.3c0.2,0.5,0.5,1,1,1.5c-0.3,0-0.5,0.1-0.6,0.1c-0.1,0-0.3,0.1-0.6,0.3l0,3.6
		c0.4-0.2,0.7-0.3,1-0.4c0.3-0.1,0.6-0.1,1.1-0.1l4.4,0c0.5,0,1-0.1,1.5-0.3c0.5-0.2,0.9-0.4,1.2-0.8c0.4-0.5,0.7-1,0.8-1.7
		c0.1-0.7,0.2-1.6,0.2-2.7c0-0.7-0.1-1.4-0.2-2c-0.1-0.6-0.3-1.1-0.4-1.4c-0.3-0.5-0.6-0.9-0.9-1.1c-0.4-0.3-0.9-0.5-1.5-0.6
		l-0.4,3.6c0.4,0.1,0.7,0.3,0.9,0.6c0.2,0.3,0.3,0.8,0.3,1.4c0,0.5-0.1,0.8-0.3,1c-0.2,0.2-0.5,0.3-1,0.3L141.8,3028.1z"/>
	<path class="st19" d="M141.7,2996.2h-0.6c-0.5,0-0.9-0.1-1.1-0.2c-0.3-0.2-0.5-0.4-0.8-0.8c-0.2-0.4-0.3-0.8-0.3-1.2
		c0-0.4,0.1-0.7,0.3-0.9c0.2-0.2,0.4-0.3,0.7-0.3c0.3,0,0.5,0.1,0.7,0.3c0.2,0.2,0.4,0.7,0.6,1.5c0.1,0.3,0.1,0.5,0.2,0.8l1.9,0.1
		c-0.1-0.2-0.1-0.4-0.2-0.6c-0.1-0.4-0.3-1.3-0.6-2.8c-0.2-1.2-0.6-2-1.1-2.4c-0.5-0.4-1.1-0.7-1.9-0.7c-0.8,0-1.5,0.3-2,0.9
		c-0.5,0.6-0.8,1.5-0.8,2.7c0,0.9,0.1,1.7,0.4,2.3c0.2,0.5,0.5,1,1,1.5c-0.3,0-0.5,0.1-0.6,0.1c-0.1,0-0.3,0.1-0.6,0.3l0,3.6
		c0.4-0.2,0.7-0.3,1-0.4c0.3-0.1,0.6-0.1,1.1-0.1l4.4,0c0.5,0,1-0.1,1.5-0.3c0.5-0.2,0.9-0.4,1.2-0.8c0.4-0.5,0.7-1,0.8-1.7
		c0.1-0.7,0.2-1.6,0.2-2.7c0-0.7-0.1-1.4-0.2-2c-0.1-0.6-0.3-1.1-0.4-1.4c-0.3-0.5-0.6-0.9-0.9-1.1c-0.4-0.3-0.9-0.5-1.5-0.6
		l-0.4,3.6c0.4,0.1,0.7,0.3,0.9,0.6c0.2,0.3,0.3,0.8,0.3,1.4c0,0.5-0.1,0.8-0.3,1c-0.2,0.2-0.5,0.3-1,0.3L141.7,2996.2z"/>
	<path class="st19" d="M116.1,2983.2l3.1,0v0.7h0.5l0-0.7h0.3c0.2,0,0.4,0,0.4,0.1c0.1,0.1,0.1,0.2,0.1,0.4c0,0.1,0,0.2,0,0.4
		l0.5,0.1c0-0.2,0.1-0.4,0.1-0.6c0-0.3,0-0.5-0.1-0.6c-0.1-0.1-0.2-0.2-0.4-0.3c-0.1,0-0.3-0.1-0.5-0.1h-0.4v-0.5h-0.5v0.5l-3.1,0
		L116.1,2983.2z"/>
	<path class="st19" d="M116.1,2988v0.6c0.1-0.1,0.3-0.1,0.4-0.2c0.2,0,0.5,0,1.1,0l0.8,0c0.3,0,0.5,0,0.6,0c0.2,0,0.3-0.1,0.4-0.2
		c0.1-0.1,0.2-0.2,0.3-0.4c0.1-0.2,0.1-0.4,0.1-0.7c0-0.3,0-0.6-0.1-0.8c-0.1-0.2-0.2-0.4-0.4-0.5c-0.2-0.1-0.4-0.2-0.6-0.3
		l-0.1,0.6c0.3,0.1,0.4,0.2,0.5,0.3c0.1,0.1,0.2,0.3,0.2,0.6c0,0.3-0.1,0.5-0.2,0.7c-0.1,0.1-0.3,0.2-0.5,0.2c0,0-0.1,0-0.2,0
		c-0.1-0.2-0.2-0.6-0.2-1.1c0-0.2-0.1-0.4-0.1-0.5c0-0.2-0.1-0.3-0.2-0.4c-0.1-0.1-0.2-0.2-0.4-0.3c-0.1-0.1-0.3-0.1-0.5-0.1
		c-0.3,0-0.5,0.1-0.7,0.3c-0.2,0.2-0.3,0.5-0.3,0.9c0,0.2,0,0.5,0.1,0.7c0.1,0.2,0.2,0.4,0.4,0.7
		C116.3,2987.9,116.2,2987.9,116.1,2988 M117.6,2987.8c-0.3,0-0.5,0-0.6-0.1c-0.2-0.1-0.3-0.2-0.4-0.4c-0.1-0.2-0.2-0.4-0.2-0.6
		c0-0.2,0.1-0.4,0.2-0.5c0.1-0.1,0.2-0.2,0.4-0.2c0.1,0,0.2,0,0.3,0.1c0.1,0.1,0.2,0.1,0.2,0.2c0,0.1,0.1,0.3,0.1,0.5
		c0.1,0.4,0.1,0.8,0.2,1H117.6z"/>
	<path class="st19" d="M116.5,2991c-0.4,0.2-0.5,0.6-0.5,1s0.2,0.8,0.5,1.1c0.3,0.3,0.8,0.5,1.4,0.5c0.3,0,0.5,0,0.7-0.1
		c0.2-0.1,0.4-0.2,0.6-0.3c0.2-0.1,0.3-0.3,0.4-0.5c0.1-0.2,0.1-0.4,0.1-0.6c0-0.4-0.2-0.7-0.5-1l1.8,0v-0.6l-5,0l0,0.6H116.5z
		 M118.9,2991.3c0.2,0.2,0.3,0.4,0.3,0.7c0,0.3-0.1,0.5-0.3,0.7c-0.2,0.2-0.6,0.3-1,0.3c-0.5,0-0.8-0.1-1-0.3
		c-0.2-0.2-0.3-0.4-0.3-0.7c0-0.3,0.2-0.6,0.5-0.8c0.2-0.1,0.5-0.2,0.9-0.2C118.3,2991,118.7,2991.1,118.9,2991.3"/>
	<rect x="116.1" y="2995.4" class="st19" width="5" height="0.6"/>
	<path class="st19" d="M116.1,3000.5l0,0.6c0.1-0.1,0.3-0.1,0.4-0.2c0.1,0,0.5,0,1.1,0h0.8c0.3,0,0.5,0,0.6,0c0.2,0,0.3-0.1,0.4-0.2
		c0.1-0.1,0.2-0.2,0.3-0.4c0.1-0.2,0.1-0.4,0.1-0.7c0-0.3,0-0.6-0.1-0.8c-0.1-0.2-0.2-0.4-0.4-0.5c-0.2-0.1-0.4-0.2-0.6-0.3
		l-0.1,0.6c0.3,0.1,0.4,0.2,0.5,0.3c0.1,0.1,0.2,0.3,0.2,0.6c0,0.3-0.1,0.5-0.2,0.7c-0.1,0.1-0.3,0.2-0.5,0.2c0,0-0.1,0-0.2,0
		c-0.1-0.2-0.2-0.6-0.2-1.1c0-0.2-0.1-0.4-0.1-0.5c0-0.2-0.1-0.3-0.2-0.4c-0.1-0.1-0.2-0.2-0.3-0.3c-0.1-0.1-0.3-0.1-0.5-0.1
		c-0.3,0-0.5,0.1-0.7,0.3c-0.2,0.2-0.3,0.5-0.3,0.9c0,0.2,0,0.5,0.1,0.7c0.1,0.2,0.2,0.4,0.4,0.6
		C116.3,3000.4,116.2,3000.4,116.1,3000.5 M117.7,3000.3c-0.3,0-0.5,0-0.6-0.1c-0.2-0.1-0.3-0.2-0.4-0.4c-0.1-0.2-0.2-0.4-0.2-0.6
		c0-0.2,0.1-0.4,0.2-0.5c0.1-0.1,0.2-0.2,0.4-0.2c0.1,0,0.2,0,0.3,0.1c0.1,0.1,0.2,0.1,0.2,0.2c0,0.1,0.1,0.3,0.1,0.5
		c0.1,0.4,0.1,0.8,0.2,1H117.7z"/>
	<path class="st19" d="M116.5,3003.5c-0.4,0.2-0.5,0.6-0.5,1c0,0.4,0.2,0.8,0.5,1.1c0.3,0.3,0.8,0.5,1.4,0.5c0.3,0,0.5,0,0.7-0.1
		c0.2-0.1,0.4-0.2,0.6-0.3c0.2-0.1,0.3-0.3,0.4-0.5c0.1-0.2,0.1-0.4,0.1-0.6c0-0.4-0.2-0.7-0.5-1h1.8v-0.6l-5,0v0.6H116.5z
		 M118.9,3003.8c0.2,0.2,0.3,0.4,0.3,0.7c0,0.3-0.1,0.5-0.3,0.7c-0.2,0.2-0.6,0.3-1,0.3c-0.5,0-0.8-0.1-1-0.3
		c-0.2-0.2-0.3-0.4-0.3-0.7c0-0.3,0.2-0.6,0.5-0.8c0.2-0.1,0.5-0.2,0.9-0.2C118.3,3003.5,118.7,3003.6,118.9,3003.8"/>
	<polygon class="st19" points="117.6,3009.5 118.2,3009.5 118.2,3007.7 117.6,3007.7 	"/>
	<path class="st19" d="M116.1,3011.9l2,0c0.5,0,0.8,0.1,0.9,0.3c0.2,0.2,0.2,0.4,0.2,0.7c0,0.2,0,0.3-0.1,0.4
		c-0.1,0.1-0.2,0.2-0.3,0.3c-0.1,0-0.3,0.1-0.6,0.1l-2.2,0l0,0.6l2.2,0c0.3,0,0.5,0,0.6,0c0.2,0,0.3-0.1,0.4-0.2
		c0.1-0.1,0.2-0.2,0.3-0.4c0.1-0.2,0.1-0.4,0.1-0.6c0-0.5-0.2-0.9-0.6-1.1h0.5v-0.5l-3.6,0V3011.9z"/>
	<path class="st19" d="M116.7,3018.3c-0.1-0.2-0.2-0.3-0.2-0.6c0-0.3,0.1-0.6,0.3-0.8c0.2-0.2,0.5-0.3,0.9-0.3l0,2.7
		c0.1,0,0.1,0,0.2,0c0.6,0,1.1-0.2,1.4-0.5c0.3-0.3,0.5-0.7,0.5-1.2c0-0.5-0.2-0.9-0.5-1.2c-0.3-0.3-0.8-0.5-1.4-0.5
		c-0.6,0-1,0.2-1.4,0.5c-0.3,0.3-0.5,0.7-0.5,1.3c0,0.4,0.1,0.8,0.3,1c0.2,0.3,0.5,0.5,0.9,0.6l0.1-0.6
		C117,3018.6,116.8,3018.5,116.7,3018.3 M119,3017c0.2,0.2,0.3,0.4,0.3,0.7c0,0.3-0.1,0.6-0.3,0.8c-0.2,0.1-0.4,0.2-0.7,0.2l0-2
		C118.5,3016.7,118.8,3016.8,119,3017"/>
	<path class="st19" d="M116.1,3024.1l3.6,0l0-0.6l-1.9,0c-0.3,0-0.5,0-0.7-0.1c-0.2-0.1-0.3-0.2-0.4-0.3c-0.1-0.2-0.1-0.3-0.1-0.5
		c0-0.2,0-0.3,0.1-0.5c0.1-0.1,0.2-0.2,0.4-0.2c0.1,0,0.3,0,0.6,0l2,0v-0.6l-2.2,0c-0.3,0-0.4,0-0.6,0c-0.2,0-0.3,0.1-0.5,0.2
		c-0.1,0.1-0.2,0.2-0.3,0.4c-0.1,0.2-0.1,0.4-0.1,0.6c0,0.5,0.2,0.9,0.6,1.1h-0.5V3024.1z"/>
	<path class="st19" d="M116.7,3028.2c-0.1-0.2-0.2-0.4-0.2-0.6c0-0.3,0.1-0.5,0.3-0.7c0.2-0.2,0.6-0.3,1.1-0.3c0.5,0,0.8,0.1,1,0.3
		c0.2,0.2,0.3,0.4,0.3,0.7c0,0.2-0.1,0.4-0.2,0.5c-0.1,0.1-0.3,0.2-0.5,0.3l0.1,0.6c0.4-0.1,0.6-0.2,0.8-0.5c0.2-0.2,0.3-0.6,0.3-1
		c0-0.3-0.1-0.6-0.2-0.9c-0.1-0.3-0.4-0.5-0.7-0.6c-0.3-0.1-0.6-0.2-1-0.2c-0.6,0-1.1,0.2-1.4,0.5c-0.3,0.3-0.5,0.7-0.5,1.2
		c0,0.4,0.1,0.7,0.4,1c0.2,0.3,0.6,0.4,1,0.5l0.1-0.6C117.1,3028.4,116.9,3028.3,116.7,3028.2"/>
	<path class="st19" d="M116.1,3031.3l2,0c0.3,0,0.5,0,0.7,0.1s0.3,0.2,0.4,0.3c0.1,0.2,0.1,0.3,0.1,0.5c0,0.2-0.1,0.4-0.2,0.6
		c-0.1,0.1-0.4,0.2-0.7,0.2l-2.3,0v0.6l2.3,0c0.4,0,0.6,0,0.8-0.1c0.2-0.1,0.3-0.2,0.4-0.4c0.1-0.2,0.2-0.4,0.2-0.7
		c0-0.4-0.2-0.8-0.5-1.1l1.8,0l0-0.6l-5,0L116.1,3031.3z"/>
	<rect x="116.1" y="3035.8" class="st19" width="0.7" height="0.7"/>
	<path class="st19" d="M116.6,3040c-0.1-0.1-0.2-0.3-0.2-0.4c0-0.2,0.1-0.4,0.2-0.5c0.2-0.1,0.4-0.2,0.8-0.2c0.4,0,0.6,0.1,0.8,0.2
		c0.2,0.1,0.2,0.3,0.2,0.6c0,0.2,0,0.3-0.1,0.4c-0.1,0.1-0.2,0.2-0.4,0.2l0.1,0.4c0.3-0.1,0.5-0.2,0.6-0.4c0.1-0.2,0.2-0.4,0.2-0.7
		c0-0.2-0.1-0.4-0.2-0.6s-0.3-0.3-0.5-0.4c-0.2-0.1-0.5-0.1-0.8-0.1c-0.5,0-0.8,0.1-1,0.3c-0.2,0.2-0.4,0.5-0.4,0.9
		c0,0.3,0.1,0.5,0.3,0.7c0.2,0.2,0.4,0.3,0.7,0.4l0.1-0.4C116.9,3040.2,116.7,3040.2,116.6,3040"/>
	<path class="st19" d="M116.1,3042.4l1.5,0c0.2,0,0.4,0,0.5,0.1c0.1,0.1,0.2,0.1,0.3,0.3c0.1,0.1,0.1,0.2,0.1,0.4
		c0,0.2-0.1,0.3-0.2,0.4c-0.1,0.1-0.3,0.1-0.5,0.1l-1.7,0v0.5l1.7,0c0.3,0,0.5,0,0.6-0.1c0.1-0.1,0.2-0.2,0.3-0.3
		c0.1-0.1,0.1-0.3,0.1-0.5c0-0.3-0.1-0.6-0.4-0.8l1.3,0v-0.5l-3.7,0V3042.4z"/>
	<polygon class="st20" points="102.8,2984.4 102.8,2982.4 104.9,2982.4 104.9,2983.9 105.1,2983.9 105.2,2983.9 105.2,2982.4 
		108,2982.4 108,2984.3 108.1,2984.4 108.3,2984.4 108.3,2982.1 108.2,2982.1 102.5,2982.1 102.5,2984.3 102.6,2984.4 	"/>
	<polygon class="st20" points="108,2988 107.9,2988 108.2,2988.3 108.2,2988.2 108.3,2988.2 108.3,2985.4 108.2,2985.3 108,2985.3 
		108,2986.6 102.6,2986.6 102.5,2986.7 102.5,2986.9 108,2986.9 	"/>
	<polygon class="st20" points="110.3,2993.5 102.5,2993.5 102.5,2996.7 102.9,2996.7 102.9,2993.9 110.3,2993.9 	"/>
	<polygon class="st20" points="110.3,2998.7 102.5,2998.7 102.5,2999.1 109.3,2999 102.5,3002 102.5,3002.3 110.3,3002.3 
		110.3,3001.9 103.7,3001.9 110.3,2998.9 	"/>
	<path class="st20" d="M103.3,3007.1c0.2,0.1,0.3,0.1,0.5,0.1c0.2,0,0.3,0,0.4,0h0.2v-0.4h-0.1c-0.2,0-0.3,0-0.5,0
		c-0.1,0-0.3-0.1-0.4-0.1c-0.1,0-0.3-0.1-0.4-0.2c-0.2-0.2-0.3-0.5-0.3-0.9c0-0.4,0.1-0.7,0.3-0.9c0.1-0.1,0.2-0.2,0.4-0.2
		c0.1,0,0.3-0.1,0.4-0.1c0.1,0,0.3,0,0.4,0h4.3c0.2,0,0.5,0,0.6,0.1c0.2,0.1,0.3,0.2,0.4,0.3c0.1,0.1,0.2,0.2,0.2,0.4
		c0.1,0.1,0.1,0.3,0.1,0.4c0,0.1,0,0.3-0.1,0.4c-0.1,0.1-0.1,0.3-0.3,0.4c-0.1,0.1-0.3,0.2-0.5,0.3c-0.2,0.1-0.4,0.1-0.7,0.1h-0.1
		v0.4h0.1c0.3,0,0.6,0,0.9-0.1c0.3-0.1,0.5-0.2,0.6-0.4c0.3-0.3,0.4-0.7,0.4-1.1c0-0.2,0-0.4-0.1-0.6c-0.1-0.2-0.2-0.4-0.3-0.5
		c-0.3-0.4-0.8-0.5-1.4-0.5h-4.3l-0.2,0c-0.1,0-0.2,0-0.3,0c-0.1,0-0.3,0.1-0.5,0.1c-0.2,0.1-0.3,0.2-0.5,0.3
		c-0.3,0.3-0.5,0.7-0.5,1.2s0.2,0.9,0.5,1.2C103,3007,103.2,3007.1,103.3,3007.1"/>
	<path class="st20" d="M110.3,3010.3l-7.8-1.6v0.4l2.3,0.5v1.7l-2.3,0.5v0.4l7.8-1.6V3010.3z M105.2,3011.2v-1.5l4,0.8L105.2,3011.2
		z"/>
	<path class="st20" d="M110.3,3013.7h-7.8v0.4h3.3v0.9c0,0.1,0,0.2,0,0.3c0,0.1,0,0.1,0,0.2l-3.3,1.5v0.4l3.4-1.5
		c0,0.2,0.1,0.3,0.2,0.4c0.1,0.1,0.2,0.3,0.4,0.4c0.2,0.1,0.5,0.2,0.7,0.3c0.3,0.1,0.5,0.1,0.8,0.1c0.3,0,0.5,0,0.8-0.1
		c0.3-0.1,0.5-0.2,0.7-0.3c0.2-0.1,0.4-0.4,0.5-0.6c0.1-0.3,0.2-0.6,0.2-1V3013.7z M110,3015c0,0.3,0,0.6-0.1,0.8
		c-0.1,0.2-0.2,0.4-0.4,0.5c-0.2,0.1-0.4,0.2-0.6,0.3c-0.2,0.1-0.5,0.1-0.7,0.1c-0.2,0-0.5,0-0.7-0.1c-0.2-0.1-0.4-0.2-0.6-0.3
		c-0.2-0.1-0.3-0.3-0.4-0.4c-0.1-0.2-0.1-0.5-0.1-0.9v-0.9h3.8V3015z"/>
	<path class="st20" d="M110.3,3018.8h-7.8v0.4h3.3v0.9c0,0.1,0,0.2,0,0.3c0,0.1,0,0.1,0,0.2l-3.3,1.5v0.4l3.4-1.5
		c0,0.2,0.1,0.3,0.2,0.4c0.1,0.1,0.2,0.3,0.4,0.4c0.2,0.1,0.5,0.2,0.7,0.3c0.3,0.1,0.5,0.1,0.8,0.1c0.3,0,0.5,0,0.8-0.1
		c0.3-0.1,0.5-0.2,0.7-0.3c0.2-0.1,0.4-0.4,0.5-0.6c0.1-0.3,0.2-0.6,0.2-1V3018.8z M110,3020.1c0,0.3,0,0.6-0.1,0.8
		c-0.1,0.2-0.2,0.4-0.4,0.5c-0.2,0.1-0.4,0.2-0.6,0.3c-0.2,0.1-0.5,0.1-0.7,0.1c-0.2,0-0.5,0-0.7-0.1c-0.2-0.1-0.4-0.2-0.6-0.3
		c-0.2-0.1-0.3-0.3-0.4-0.4c-0.1-0.2-0.1-0.5-0.1-0.9v-0.9h3.8V3020.1z"/>
	<polygon class="st20" points="110.3,3024 102.5,3024 102.5,3027.1 102.9,3027.1 102.9,3024.3 105.8,3024.3 105.8,3026.4 
		105.9,3026.5 106.2,3026.5 106.2,3024.3 110,3024.3 110,3027 110.1,3027 110.3,3027 	"/>
	<polygon class="st20" points="110.3,3029.1 102.5,3029.1 102.5,3032.3 102.9,3032.3 102.9,3029.5 110.3,3029.5 	"/>
	<rect x="102.5" y="3033.7" class="st20" width="0.5" height="0.5"/>
	<path class="st20" d="M110,3036c-0.3-0.4-0.8-0.5-1.4-0.5h-4.3l-0.2,0c-0.1,0-0.2,0-0.3,0c-0.1,0-0.3,0.1-0.5,0.1
		c-0.2,0.1-0.3,0.2-0.5,0.3c-0.3,0.3-0.5,0.7-0.5,1.2c0,0.5,0.2,0.9,0.5,1.2c0.1,0.1,0.3,0.2,0.5,0.3c0.2,0.1,0.3,0.1,0.5,0.1
		c0.2,0,0.3,0,0.4,0h0.2v-0.4h-0.1c-0.2,0-0.3,0-0.5,0c-0.1,0-0.3-0.1-0.4-0.1c-0.1,0-0.3-0.1-0.4-0.2c-0.2-0.2-0.3-0.5-0.3-0.9
		c0-0.4,0.1-0.7,0.3-0.9c0.1-0.1,0.2-0.2,0.3-0.2c0.1,0,0.3-0.1,0.4-0.1c0.1,0,0.3,0,0.4,0h4.3c0.2,0,0.5,0,0.6,0.1
		c0.2,0.1,0.3,0.2,0.4,0.3c0.1,0.1,0.2,0.2,0.2,0.4c0.1,0.1,0.1,0.3,0.1,0.4c0,0.1,0,0.3-0.1,0.4c-0.1,0.1-0.1,0.3-0.3,0.4
		c-0.1,0.1-0.3,0.2-0.5,0.3c-0.2,0.1-0.4,0.1-0.7,0.1h-0.1v0.4h0.1c0.3,0,0.6,0,0.9-0.1c0.3-0.1,0.5-0.2,0.6-0.4
		c0.3-0.3,0.4-0.7,0.4-1.1c0-0.2,0-0.4-0.1-0.6C110.3,3036.3,110.2,3036.1,110,3036"/>
	<polygon class="st20" points="102.5,3040.9 105.8,3040.9 105.8,3043.6 102.5,3043.6 102.5,3044 110.3,3044 110.3,3043.6 
		106.2,3043.6 106.2,3040.9 110.3,3040.9 110.3,3040.5 102.5,3040.5 	"/>
</g>
<rect x="59.9" y="1817.6" class="st0" width="441.7" height="228.2"/>
<text transform="matrix(1 0 0 1 59.884 1836.1841)"><tspan x="0" y="0" class="st1 st5">03_ring / </tspan><tspan x="102.8" y="0" class="st4 st1 st5">bague</tspan><tspan x="0" y="15.1" class="st1 st6">Cut the drawing below inside the polypropylene sheet</tspan><tspan x="0" y="30.2" class="st4 st1 st6">Coupe le dessin ci-dessous dans la feuille de polypropylène</tspan><tspan x="0" y="58.5" class="st1 st7">red: cutting path /</tspan><tspan x="85.1" y="58.5" class="st4 st1 st7"> rouge: chemin de découpe</tspan></text>
<g>
	<circle class="st18" cx="166.2" cy="2023.7" r="33.3"/>
	<circle class="st18" cx="166.2" cy="2023.7" r="106.3"/>
</g>
<g>
	<rect x="59.9" y="1170.6" class="st21" width="1842.5" height="595.2"/>
	<line class="st16" x1="215.8" y1="1170.6" x2="215.8" y2="1765.9"/>
	<line class="st16" x1="300.8" y1="1170.6" x2="300.8" y2="1765.9"/>
	<line class="st16" x1="385.9" y1="1170.6" x2="385.9" y2="1765.9"/>
	<line class="st16" x1="470.9" y1="1170.6" x2="470.9" y2="1765.9"/>
	<line class="st16" x1="555.9" y1="1170.6" x2="555.9" y2="1765.9"/>
	<line class="st16" x1="641" y1="1170.6" x2="641" y2="1765.9"/>
	<line class="st16" x1="726" y1="1170.6" x2="726" y2="1765.9"/>
	<line class="st16" x1="811.1" y1="1170.6" x2="811.1" y2="1765.9"/>
	<line class="st16" x1="896.1" y1="1170.6" x2="896.1" y2="1765.9"/>
	<line class="st16" x1="981.1" y1="1170.6" x2="981.1" y2="1765.9"/>
	<line class="st16" x1="1066.2" y1="1170.6" x2="1066.2" y2="1765.9"/>
	<line class="st16" x1="1151.2" y1="1170.6" x2="1151.2" y2="1765.9"/>
	<line class="st16" x1="1236.3" y1="1170.6" x2="1236.3" y2="1765.9"/>
	<line class="st16" x1="1321.3" y1="1170.6" x2="1321.3" y2="1765.9"/>
	<line class="st16" x1="1406.3" y1="1170.6" x2="1406.3" y2="1765.9"/>
	<line class="st16" x1="1491.4" y1="1170.6" x2="1491.4" y2="1765.9"/>
	<line class="st16" x1="1576.4" y1="1170.6" x2="1576.4" y2="1765.9"/>
	<line class="st16" x1="1661.5" y1="1170.6" x2="1661.5" y2="1765.9"/>
	<line class="st16" x1="1746.5" y1="1170.6" x2="1746.5" y2="1765.9"/>
</g>
</svg>
